<?xml version="1.0" encoding="UTF-8"?>
<svg id="_Слой_2" data-name="Слой 2" xmlns="http://www.w3.org/2000/svg" viewBox="0 0 438.71 184.48">
  <g id="Layer_1" data-name="Layer 1">
    <path d="m438.22,95.33c.04-.12.07-.25.11-.38.05-.19.1-.38.14-.57.02-.1.05-.2.06-.31.06-.3.1-.6.13-.9,0,0,0,0,0,0,.03-.31.04-.61.04-.92,0-.08,0-.16,0-.24,0-.23-.01-.46-.03-.69,0-.09-.01-.19-.02-.28-.03-.23-.06-.47-.1-.7-.03-.16-.06-.31-.1-.47-.04-.18-.08-.36-.13-.53-.05-.18-.11-.36-.17-.54-.03-.08-.05-.15-.08-.23-.51-1.4-1.31-2.72-2.44-3.85-.11-.11-.23-.2-.34-.31L353.94,3.08c-4.1-4.1-10.77-4.1-14.87,0s-4.1,10.77,0,14.87l63.74,63.74H10.5c-5.81,0-10.5,4.69-10.5,10.5s4.69,10.5,10.5,10.5h392.31l-63.84,63.84c-4.1,4.1-4.1,10.77,0,14.87,2.03,2.07,4.73,3.09,7.42,3.09h0c2.69,0,5.38-1.02,7.45-3.09l81.79-81.79s.08-.1.13-.14c.05-.05.1-.11.15-.17.25-.27.49-.55.7-.84.07-.09.14-.18.2-.27.11-.15.21-.3.3-.46.07-.1.13-.21.19-.32.09-.15.18-.3.25-.45.12-.24.23-.48.34-.72,0,0,0-.01,0-.02.05-.12.09-.25.14-.37.06-.17.12-.33.18-.5Z"/>
  </g>
</svg>