<?xml version="1.0" encoding="UTF-8"?>
<svg id="_Слой_2" data-name="Слой 2" xmlns="http://www.w3.org/2000/svg" viewBox="0 0 504.9 490.67">
  <g id="_Слой_1-2" data-name="Слой 1">
    <path d="m21.33,0C9.55,0,0,9.55,0,21.33s9.55,21.33,21.33,21.33h37.96c6.37,0,12.03,4.08,14.04,10.12l70.34,211.05c3.12,9.37,3.52,19.46,1.13,29.04l-5.79,23.21c-8.5,33.99,17.96,67.92,53,67.92h256c11.78,0,21.33-9.55,21.33-21.33s-9.55-21.33-21.33-21.33H192c-8.31,0-13.64-6.82-11.63-14.88l4.37-17.44c1.52-6.08,6.99-10.35,13.26-10.35h228.67c9.19,0,17.34-5.87,20.25-14.58l56.88-170.67c4.61-13.82-5.68-28.09-20.25-28.08H139.83c-6.37,0-12.03-4.08-14.04-10.12l-20.21-60.63C102.68,5.87,94.52,0,85.33,0H21.33Zm149.33,405.33c-23.56,0-42.67,19.1-42.67,42.67s19.1,42.67,42.67,42.67,42.67-19.1,42.67-42.67-19.1-42.67-42.67-42.67Zm256,0c-23.56,0-42.67,19.1-42.67,42.67s19.1,42.67,42.67,42.67,42.67-19.1,42.67-42.67-19.1-42.67-42.67-42.67Z"/>
  </g>
</svg>