<?xml version="1.0" encoding="UTF-8"?>
<svg id="_Слой_2" data-name="Слой 2" xmlns="http://www.w3.org/2000/svg" viewBox="0 0 512 426.67">
  <g id="Capa_1" data-name="Capa 1">
    <g>
      <path d="m469.33,64h-106.67v-21.33c0-23.53-19.14-42.67-42.67-42.67h-128c-23.53,0-42.67,19.14-42.67,42.67v21.33H42.67c-23.53,0-42.67,19.14-42.67,42.67v64c0,23.53,19.14,42.67,42.67,42.67h170.67v-10.67c0-5.9,4.77-10.67,10.67-10.67h64c5.9,0,10.67,4.77,10.67,10.67v10.67h170.67c23.53,0,42.66-19.13,42.66-42.67v-64c0-23.53-19.14-42.67-42.67-42.67Zm-149.33,0h-128v-21.33h128v21.33Z"/>
      <path d="m506.08,224.84c-3.64-1.8-7.98-1.39-11.19,1.05-7.58,5.74-16.42,8.77-25.56,8.77h-170.67v32c0,5.9-4.77,10.67-10.67,10.67h-64c-5.9,0-10.67-4.77-10.67-10.67v-32H42.67c-9.15,0-17.98-3.03-25.56-8.77-3.22-2.46-7.55-2.88-11.19-1.05-3.62,1.8-5.92,5.5-5.92,9.55v149.6c0,23.53,19.14,42.67,42.67,42.67h426.67c23.53,0,42.67-19.14,42.67-42.67v-149.6c0-4.05-2.29-7.75-5.92-9.55Z"/>
    </g>
  </g>
</svg>