<?xml version="1.0" encoding="UTF-8"?>
<svg id="_Слой_2" data-name="Слой 2" xmlns="http://www.w3.org/2000/svg" viewBox="0 0 512 475.78">
  <g id="Capa_1" data-name="Capa 1">
    <path d="m256,0c-8.29,0-15,6.71-15,15v45c0,8.29,6.71,15,15,15s15-6.71,15-15V15c0-8.29-6.71-15-15-15Z"/>
    <path d="m176.61,94.39l-30-30c-5.86-5.86-15.35-5.86-21.21,0s-5.86,15.35,0,21.21l30,30c5.86,5.86,15.35,5.86,21.21,0,5.86-5.86,5.86-15.35,0-21.21Z"/>
    <path d="m386.61,64.39c-5.86-5.86-15.35-5.86-21.21,0l-30,30c-5.86,5.86-5.86,15.35,0,21.21,5.86,5.86,15.35,5.86,21.21,0l30-30c5.86-5.86,5.86-15.35,0-21.21Z"/>
    <path d="m497,210h-46v210h46c8.29,0,15-6.71,15-15v-180c0-8.29-6.71-15-15-15Z"/>
    <path d="m15,210c-8.29,0-15,6.71-15,15v180c0,8.29,6.71,15,15,15h46v-210H15Z"/>
    <path d="m244.54,225c-11.44,0-21.72,6.36-26.84,16.58l-45.66,91.35c7.65,3.35,15.73,5.05,23.99,5.05,22.84,0,43.39-12.73,53.63-33.24l9.87-19.75h29.03c7.9,0,15.63,3.21,21.21,8.79l111.21,111.21v-180h-176.46Z"/>
    <path d="m288.58,315h-10.49l-.87,1.73c-14.17,28.34-41.8,48.34-73.38,50.92-23.23,1.9-39.33-4.78-58.43-13.47-7.76-3.53-11.14-12.81-7.33-20.43l52.77-105.58c10.16-20.33,30.95-33.18,53.68-33.18h64.73c4.15-9.2,6.72-19.25,6.72-30,0-8.29-6.71-15-15-15h-116.46c-17.05,0-32.63,9.63-40.26,24.88l-13.41,26.82c-2.54,5.08-7.74,8.29-13.42,8.29h-26.46v210h68.79l42.49,42.49c12.32,12.32,30.06,16.21,45.37,11.09l128.1-40.27c7.66-2.15,14.11-6.37,19.37-11.77l-106.55-106.55Z"/>
  </g>
</svg>