<?xml version="1.0" encoding="UTF-8"?>
<svg id="_Слой_2" data-name="Слой 2" xmlns="http://www.w3.org/2000/svg" viewBox="0 0 379.37 460.37">
  <g id="Capa_1" data-name="Capa 1">
    <path d="m370,399.08h-19.33v-98.2c0-2.59-2.1-4.68-4.69-4.68h-21.81v-75.04l2.28.95c1.17.49,2.39.71,3.58.71,3.68,0,7.17-2.18,8.66-5.79l13.34-32.21c.95-2.3.95-4.88,0-7.17-.95-2.3-2.77-4.12-5.07-5.07l-202.53-83.86c7.4-14.12,14.05-28.5,19.77-42.74,1.91-4.77-.37-10.18-5.11-12.15L79.1.72c-4.74-1.96-10.19.25-12.2,4.98-19.81,46.39-32.59,98.09-40.21,162.7-.49,4.17,1.85,8.15,5.72,9.76l34.29,14.2c3.87,1.6,8.34.44,10.94-2.85,14.87-18.86,27.71-36.58,39.25-54.16l40.48,16.76-1.99,13.79-6.04,41.78-27.64,191.41H9.37c-5.17,0-9.37,4.19-9.37,9.37v42.55c0,5.17,4.19,9.37,9.37,9.37h360.63c5.17,0,9.37-4.2,9.37-9.37v-42.55c0-5.18-4.2-9.37-9.37-9.37Zm-64.56-102.89h-21.81c-2.59,0-4.69,2.1-4.69,4.68v98.2h-21.27l-27.64-191.41-3.91-27.11,79.32,32.84v82.79h0Zm-92.55-63.46l-32.93-24.56,26.19-22.13,6.74,46.7Zm-10.99,17.43l-41.76,26.55,7.52-52.1,34.24,25.54Zm15.6,14.44l10.06,69.67-54.21-41.61,44.15-28.07Zm-40.19,134.48l53.96-39.1,5.65,39.1h-59.6Zm18.4-231.12l-22.62,19.12,3.88-26.88,18.74,7.76Zm-39.69,137.31l56.2,43.14-69.73,50.52,13.52-93.66Z"/>
  </g>
</svg>