<?xml version="1.0" encoding="UTF-8"?>
<svg id="_Слой_2" data-name="Слой 2" xmlns="http://www.w3.org/2000/svg" viewBox="0 0 18.99 46.61">
  <g id="Capa_1" data-name="Capa 1">
    <g>
      <path d="m8.6,12.01c.22.26.55.41.89.41s.67-.15.89-.41c.99-1.18,2.47-3.33,2.47-5.8S11.37,1.59,10.38.41c-.22-.26-.55-.41-.89-.41s-.67.15-.89.41c-1,1.17-2.47,3.33-2.47,5.8,0,2.47,1.47,4.63,2.47,5.8Z"/>
      <path d="m9.5,20.1c.18,0,4.55.18,7.13-2.4,1.74-1.74,2.23-4.31,2.36-5.85.03-.34-.1-.68-.34-.92-.24-.24-.58-.36-.92-.34-1.53.13-4.1.61-5.85,2.36-1.93,1.93-2.31,4.86-2.38,6.29-.07-1.43-.46-4.36-2.39-6.29-1.75-1.74-4.31-2.23-5.85-2.36-.34-.03-.68.1-.92.34-.24.24-.36.58-.34.92.13,1.53.61,4.1,2.36,5.85,2.58,2.58,6.95,2.4,7.14,2.4Z"/>
      <path d="m11.88,22.21c-1.93,1.93-2.31,4.86-2.38,6.29-.07-1.43-.46-4.36-2.39-6.29-1.75-1.75-4.31-2.23-5.85-2.36-.34-.03-.68.09-.92.34s-.36.58-.34.92c.13,1.53.61,4.1,2.36,5.85,2.58,2.58,6.95,2.4,7.13,2.4.18,0,4.55.18,7.13-2.4,1.74-1.75,2.23-4.31,2.36-5.85.03-.34-.1-.68-.34-.92-.24-.24-.58-.36-.92-.34-1.53.13-4.1.61-5.85,2.36Z"/>
      <path d="m11.88,31.46c-1.93,1.93-2.31,4.86-2.38,6.29-.07-1.44-.46-4.37-2.39-6.29-1.75-1.75-4.31-2.23-5.85-2.36-.34-.03-.68.09-.92.34-.24.24-.37.58-.34.92.13,1.53.61,4.1,2.36,5.85,1.76,1.76,4.37,2.24,5.9,2.36v6.67c0,.76.52,1.37,1.28,1.37s1.28-.61,1.28-1.37v-6.67c1.54-.13,4.08-.62,5.81-2.35,1.74-1.74,2.23-4.31,2.36-5.85.03-.34-.1-.68-.34-.92-.24-.24-.58-.36-.92-.34-1.53.13-4.1.61-5.85,2.36Z"/>
    </g>
  </g>
</svg>