<?xml version="1.0" encoding="UTF-8"?>
<svg id="_Слой_2" data-name="Слой 2" xmlns="http://www.w3.org/2000/svg" viewBox="0 0 612 387.59">
  <g id="Capa_1" data-name="Capa 1">
    <g>
      <path d="m504.9,283.55c-28.68,0-52.02,23.34-52.02,52.02s23.34,52.02,52.02,52.02,52.02-23.34,52.02-52.02-23.34-52.02-52.02-52.02Zm0,67.32c-8.44,0-15.3-6.86-15.3-15.3s6.86-15.3,15.3-15.3,15.3,6.86,15.3,15.3-6.86,15.3-15.3,15.3Z"/>
      <path d="m499.92,67.31h-89.88c-6.76,0-12.24,5.48-12.24,12.24v238.68c0,6.76,5.48,12.24,12.24,12.24h12.98c6.06,0,11.43-4.36,12.21-10.37,4.8-36.81,34.16-59.63,69.68-59.63s64.87,22.83,69.68,59.63c.78,6.01,6.14,10.37,12.21,10.37h12.97c6.76,0,12.24-5.48,12.24-12.24v-119.34c0-2.88-1.01-5.65-2.85-7.85l-99.84-119.34c-2.32-2.78-5.76-4.39-9.39-4.39Zm-77.64,97.92v-61.2c0-6.76,5.48-12.24,12.24-12.24h53.92c3.63,0,7.08,1.62,9.4,4.41l51,61.2c6.64,7.97.97,20.07-9.41,20.07h-104.91c-6.76,0-12.24-5.48-12.24-12.24Z"/>
      <path d="m12.24,330.48h31.34c6.06,0,11.43-4.36,12.21-10.37,4.8-36.81,34.16-59.63,69.68-59.63s64.87,22.83,69.68,59.63c.78,6.01,6.14,10.37,12.21,10.37h153.73c6.76,0,12.24-5.48,12.24-12.24V12.24c0-6.76-5.48-12.24-12.24-12.24H12.24C5.48,0,0,5.48,0,12.24v306c0,6.76,5.48,12.24,12.24,12.24Z"/>
      <path d="m125.46,283.55c-28.68,0-52.02,23.34-52.02,52.02s23.34,52.02,52.02,52.02,52.02-23.34,52.02-52.02c0-28.68-23.34-52.02-52.02-52.02Zm0,67.32c-8.44,0-15.3-6.86-15.3-15.3s6.86-15.3,15.3-15.3,15.3,6.86,15.3,15.3-6.86,15.3-15.3,15.3Z"/>
    </g>
  </g>
</svg>